<svg xmlns="http://www.w3.org/2000/svg" viewBox="0 0 100 120" width="100" height="120">
  <!-- Person with graduation cap -->
  <g>
    <!-- Head (circle) -->
    <circle cx="50" cy="28" r="11" fill="#9333ea"/>
    <!-- Body (trapezoid) -->
    <path d="M 36 40 L 64 40 L 60 52 L 40 52 Z" fill="#9333ea"/>
    <!-- Graduation cap -->
    <rect x="39" y="17" width="22" height="5" fill="#9333ea" rx="1"/>
    <rect x="41" y="19" width="18" height="3" fill="#9333ea"/>
    <!-- Tassel -->
    <circle cx="59" cy="19" r="1.2" fill="#9333ea"/>
    <line x1="59" y1="19" x2="61" y2="23" stroke="#9333ea" stroke-width="0.8"/>
  </g>
  
  <!-- Open book -->
  <g>
    <!-- Book pages -->
    <path d="M 28 68 Q 28 63 33 63 L 47 63 Q 50 63 50 68 L 50 88 Q 50 93 47 93 L 33 93 Q 28 93 28 88 Z" fill="none" stroke="#1e40af" stroke-width="2.5" stroke-linecap="round"/>
    <path d="M 72 68 Q 72 63 67 63 L 53 63 Q 50 63 50 68 L 50 88 Q 50 93 53 93 L 67 93 Q 72 93 72 88 Z" fill="none" stroke="#1e40af" stroke-width="2.5" stroke-linecap="round"/>
    <!-- Book spine -->
    <path d="M 50 63 Q 50 58 48 58 L 48 93 Q 50 93 50 88" fill="none" stroke="#1e40af" stroke-width="2.5" stroke-linecap="round"/>
    <!-- Text lines on left page -->
    <line x1="35" y1="70" x2="46" y2="70" stroke="#1e40af" stroke-width="2" stroke-linecap="round"/>
    <line x1="35" y1="75" x2="46" y2="75" stroke="#1e40af" stroke-width="2" stroke-linecap="round"/>
    <line x1="35" y1="80" x2="46" y2="80" stroke="#1e40af" stroke-width="2" stroke-linecap="round"/>
    <!-- Text lines on right page -->
    <line x1="54" y1="70" x2="69" y2="70" stroke="#1e40af" stroke-width="2" stroke-linecap="round"/>
    <line x1="54" y1="75" x2="69" y2="75" stroke="#1e40af" stroke-width="2" stroke-linecap="round"/>
    <line x1="54" y1="80" x2="69" y2="80" stroke="#1e40af" stroke-width="2" stroke-linecap="round"/>
  </g>
</svg>
